# xmcd CD database file
#
# Track frame offsets:
#	150
#	22196
#	39783
#	62266
#	85517
#	107193
#	126071
#	145368
#	166764
#	184469
#	207679
#	231608
#	245036
#
# Disc length: 3568 seconds
#
# Revision: 0
# Processed by: cddbd v1.5.2PL0 Copyright (c) Steve Scherf et al.
# Submitted via: CDex 1.51
#
DISCID=b90dee0d
DTITLE=Chris Rea - King of The Beach
DYEAR=1900
DGENRE=Blues
TTITLE0=King of The Beach
TTITLE1=All Summer Long
TTITLE2=Sail Away
TTITLE3=Still Beautiful
TTITLE4=The Beach of Angels
TTITLE5=Guitar Street
TTITLE6=Who Do You Love
TTITLE7=The Memory of A Good Friend
TTITLE8=Sandwriting
TTITLE9=Tamatave
TTITLE10=God Gave Me An Angel
TTITLE11=Waiting For A Blue Sky
TTITLE12=Mississippi
EXTD=
EXTT0=
EXTT1=
EXTT2=
EXTT3=
EXTT4=
EXTT5=
EXTT6=
EXTT7=
EXTT8=
EXTT9=
EXTT10=
EXTT11=
EXTT12=
PLAYORDER=
